<svg viewBox="0 0 240 320" fill="none" xmlns="http://www.w3.org/2000/svg">
  <!-- Background -->
  <rect width="240" height="320" fill="#f1f5f9" rx="12"/>
  
  <!-- Subtle background pattern -->
  <defs>
    <pattern id="cotton-texture" patternUnits="userSpaceOnUse" width="6" height="6">
      <rect width="6" height="6" fill="#f8fafc"/>
      <circle cx="3" cy="3" r="0.5" fill="#e2e8f0" opacity="0.4"/>
    </pattern>
    <linearGradient id="stripe-gradient" x1="0%" y1="0%" x2="100%" y2="0%">
      <stop offset="0%" style="stop-color:#3b82f6;stop-opacity:1" />
      <stop offset="50%" style="stop-color:#60a5fa;stop-opacity:1" />
      <stop offset="100%" style="stop-color:#3b82f6;stop-opacity:1" />
    </linearGradient>
  </defs>
  <rect width="240" height="320" fill="url(#cotton-texture)"/>
  
  <!-- T-Shirt -->
  <g transform="translate(70, 60)">
    <!-- Main body -->
    <path d="M25 50 L25 190 Q25 200 35 200 L65 200 Q75 200 75 190 L75 50" 
          fill="white" stroke="#e2e8f0" stroke-width="2"/>
    
    <!-- Neckline -->
    <path d="M35 50 Q50 35 50 50 Q50 35 65 50" 
          fill="white" stroke="#e2e8f0" stroke-width="2"/>
    
    <!-- Left sleeve -->
    <path d="M25 50 Q15 55 15 70 L15 90 Q15 95 20 95 L25 90 L25 50" 
          fill="white" stroke="#e2e8f0" stroke-width="2"/>
    
    <!-- Right sleeve -->
    <path d="M75 50 Q85 55 85 70 L85 90 Q85 95 80 95 L75 90 L75 50" 
          fill="white" stroke="#e2e8f0" stroke-width="2"/>
    
    <!-- Horizontal stripes -->
    <g opacity="0.9">
      <rect x="25" y="60" width="50" height="4" fill="url(#stripe-gradient)"/>
      <rect x="25" y="70" width="50" height="4" fill="url(#stripe-gradient)"/>
      <rect x="25" y="80" width="50" height="4" fill="url(#stripe-gradient)"/>
      <rect x="25" y="90" width="50" height="4" fill="url(#stripe-gradient)"/>
      <rect x="25" y="100" width="50" height="4" fill="url(#stripe-gradient)"/>
      <rect x="25" y="110" width="50" height="4" fill="url(#stripe-gradient)"/>
      <rect x="25" y="120" width="50" height="4" fill="url(#stripe-gradient)"/>
      <rect x="25" y="130" width="50" height="4" fill="url(#stripe-gradient)"/>
      <rect x="25" y="140" width="50" height="4" fill="url(#stripe-gradient)"/>
      <rect x="25" y="150" width="50" height="4" fill="url(#stripe-gradient)"/>
      <rect x="25" y="160" width="50" height="4" fill="url(#stripe-gradient)"/>
      <rect x="25" y="170" width="50" height="4" fill="url(#stripe-gradient)"/>
      <rect x="25" y="180" width="50" height="4" fill="url(#stripe-gradient)"/>
      
      <!-- Sleeve stripes -->
      <rect x="15" y="60" width="10" height="3" fill="url(#stripe-gradient)"/>
      <rect x="15" y="70" width="10" height="3" fill="url(#stripe-gradient)"/>
      <rect x="15" y="80" width="10" height="3" fill="url(#stripe-gradient)"/>
      
      <rect x="75" y="60" width="10" height="3" fill="url(#stripe-gradient)"/>
      <rect x="75" y="70" width="10" height="3" fill="url(#stripe-gradient)"/>
      <rect x="75" y="80" width="10" height="3" fill="url(#stripe-gradient)"/>
    </g>
    
    <!-- Neck ribbing -->
    <ellipse cx="50" cy="50" rx="15" ry="3" fill="none" stroke="#cbd5e1" stroke-width="1"/>
    
    <!-- Side seams -->
    <line x1="25" y1="50" x2="25" y2="190" stroke="#f1f5f9" stroke-width="1" opacity="0.7"/>
    <line x1="75" y1="50" x2="75" y2="190" stroke="#f1f5f9" stroke-width="1" opacity="0.7"/>
    
    <!-- Sleeve seams -->
    <line x1="20" y1="70" x2="20" y2="90" stroke="#f1f5f9" stroke-width="1" opacity="0.5"/>
    <line x1="80" y1="70" x2="80" y2="90" stroke="#f1f5f9" stroke-width="1" opacity="0.5"/>
    
    <!-- Hem -->
    <rect x="25" y="195" width="50" height="3" fill="#f8fafc" stroke="#e2e8f0" stroke-width="1"/>
    
    <!-- Subtle fabric fold -->
    <path d="M40 120 Q50 115 60 120" fill="none" stroke="#e2e8f0" stroke-width="0.5" opacity="0.6"/>
  </g>
  
  <!-- Shadow -->
  <ellipse cx="120" cy="280" rx="40" ry="8" fill="#cbd5e1" opacity="0.4"/>
</svg>
