<svg viewBox="0 0 240 320" fill="none" xmlns="http://www.w3.org/2000/svg">
  <!-- Background -->
  <rect width="240" height="320" fill="#1e293b" rx="12"/>
  
  <!-- Subtle background pattern -->
  <defs>
    <pattern id="denim-texture" patternUnits="userSpaceOnUse" width="4" height="4">
      <rect width="4" height="4" fill="#334155"/>
      <path d="M0,2 L2,0 L4,2 L2,4 Z" fill="#475569" opacity="0.3"/>
    </pattern>
    <linearGradient id="denim-gradient" x1="0%" y1="0%" x2="100%" y2="100%">
      <stop offset="0%" style="stop-color:#1e40af;stop-opacity:1" />
      <stop offset="50%" style="stop-color:#1e3a8a;stop-opacity:1" />
      <stop offset="100%" style="stop-color:#1e293b;stop-opacity:1" />
    </linearGradient>
  </defs>
  <rect width="240" height="320" fill="url(#denim-texture)"/>
  
  <!-- Jeans -->
  <g transform="translate(80, 40)">
    <!-- Waistband -->
    <rect x="10" y="20" width="60" height="8" fill="url(#denim-gradient)" stroke="#475569" stroke-width="1" rx="2"/>
    
    <!-- Belt loops -->
    <rect x="18" y="18" width="2" height="12" fill="#334155" rx="1"/>
    <rect x="35" y="18" width="2" height="12" fill="#334155" rx="1"/>
    <rect x="52" y="18" width="2" height="12" fill="#334155" rx="1"/>
    
    <!-- Left leg -->
    <path d="M10 28 L15 28 L20 250 Q20 260 30 260 Q40 260 40 250 L35 28 L40 28" 
          fill="url(#denim-gradient)" stroke="#475569" stroke-width="1.5"/>
    
    <!-- Right leg -->
    <path d="M40 28 L45 28 L50 250 Q50 260 60 260 Q70 260 70 250 L65 28 L70 28" 
          fill="url(#denim-gradient)" stroke="#475569" stroke-width="1.5"/>
    
    <!-- Inseam -->
    <path d="M40 28 L40 220" stroke="#334155" stroke-width="1" opacity="0.6"/>
    
    <!-- Front pockets -->
    <path d="M15 35 Q25 40 25 55 Q25 60 20 60 L15 55 Z" 
          fill="#1e3a8a" stroke="#334155" stroke-width="1"/>
    <path d="M65 35 Q55 40 55 55 Q55 60 60 60 L65 55 Z" 
          fill="#1e3a8a" stroke="#334155" stroke-width="1"/>
    
    <!-- Back pocket (visible) -->
    <rect x="50" y="45" width="12" height="12" fill="#1e40af" stroke="#475569" stroke-width="1" rx="2"/>
    
    <!-- Stitching details -->
    <path d="M12 30 L12 240" stroke="#fbbf24" stroke-width="0.5" stroke-dasharray="2,2" opacity="0.7"/>
    <path d="M68 30 L68 240" stroke="#fbbf24" stroke-width="0.5" stroke-dasharray="2,2" opacity="0.7"/>
    
    <!-- Knee area shading -->
    <ellipse cx="27.5" cy="140" rx="8" ry="15" fill="#1e3a8a" opacity="0.4"/>
    <ellipse cx="52.5" cy="140" rx="8" ry="15" fill="#1e3a8a" opacity="0.4"/>
    
    <!-- Button and zipper -->
    <circle cx="40" cy="24" r="2" fill="#64748b" stroke="#334155" stroke-width="1"/>
    <rect x="39" y="28" width="2" height="20" fill="#475569" stroke="#334155" stroke-width="0.5"/>
    
    <!-- Rivets -->
    <circle cx="20" cy="40" r="1" fill="#fbbf24"/>
    <circle cx="60" cy="40" r="1" fill="#fbbf24"/>
    <circle cx="25" cy="55" r="1" fill="#fbbf24"/>
    <circle cx="55" cy="55" r="1" fill="#fbbf24"/>
  </g>
  
  <!-- Shadow -->
  <ellipse cx="120" cy="300" rx="50" ry="10" fill="#0f172a" opacity="0.6"/>
</svg>
