<svg viewBox="0 0 240 320" fill="none" xmlns="http://www.w3.org/2000/svg">
  <!-- Background -->
  <rect width="240" height="320" fill="#0f172a" rx="12"/>
  
  <!-- Subtle background pattern -->
  <defs>
    <pattern id="fabric-texture" patternUnits="userSpaceOnUse" width="8" height="8">
      <rect width="8" height="8" fill="#1e293b"/>
      <path d="M0,0 L4,4 M4,0 L8,4 M0,4 L4,8" stroke="#334155" stroke-width="0.5" opacity="0.3"/>
    </pattern>
    <linearGradient id="blazer-gradient" x1="0%" y1="0%" x2="100%" y2="100%">
      <stop offset="0%" style="stop-color:#1e3a8a;stop-opacity:1" />
      <stop offset="50%" style="stop-color:#1e40af;stop-opacity:1" />
      <stop offset="100%" style="stop-color:#1e3a8a;stop-opacity:1" />
    </linearGradient>
  </defs>
  <rect width="240" height="320" fill="url(#fabric-texture)"/>
  
  <!-- Blazer -->
  <g transform="translate(60, 30)">
    <!-- Main body -->
    <path d="M20 70 L20 220 Q20 240 40 240 L80 240 Q100 240 100 220 L100 70" 
          fill="url(#blazer-gradient)" stroke="#475569" stroke-width="2"/>
    
    <!-- Lapels -->
    <path d="M20 70 L40 50 L60 70 L50 80 L30 80 Z" 
          fill="#1e40af" stroke="#64748b" stroke-width="1.5"/>
    <path d="M100 70 L80 50 L60 70 L70 80 L90 80 Z" 
          fill="#1e40af" stroke="#64748b" stroke-width="1.5"/>
    
    <!-- Collar -->
    <path d="M40 50 L50 40 Q60 35 60 40 Q60 35 70 40 L80 50" 
          fill="#1e3a8a" stroke="#64748b" stroke-width="1.5"/>
    
    <!-- Left sleeve -->
    <path d="M20 70 Q0 80 0 100 L0 160 Q0 170 10 170 L20 165 L20 70" 
          fill="url(#blazer-gradient)" stroke="#475569" stroke-width="2"/>
    
    <!-- Right sleeve -->
    <path d="M100 70 Q120 80 120 100 L120 160 Q120 170 110 170 L100 165 L100 70" 
          fill="url(#blazer-gradient)" stroke="#475569" stroke-width="2"/>
    
    <!-- Button placket -->
    <rect x="55" y="80" width="10" height="140" fill="#1e40af" stroke="#64748b" stroke-width="1"/>
    
    <!-- Buttons -->
    <circle cx="60" cy="95" r="3" fill="#475569" stroke="#64748b" stroke-width="1"/>
    <circle cx="60" cy="120" r="3" fill="#475569" stroke="#64748b" stroke-width="1"/>
    <circle cx="60" cy="145" r="3" fill="#475569" stroke="#64748b" stroke-width="1"/>
    
    <!-- Breast pocket -->
    <rect x="75" y="85" width="15" height="12" fill="none" stroke="#64748b" stroke-width="1" rx="2"/>
    
    <!-- Pocket square (elegant touch) -->
    <path d="M76 87 L88 87 L88 95 L82 89 L76 95 Z" fill="#fbbf24" opacity="0.8"/>
    
    <!-- Side pockets -->
    <path d="M25 130 Q35 135 35 150 L30 155 L25 150 Z" 
          fill="none" stroke="#64748b" stroke-width="1"/>
    <path d="M95 130 Q85 135 85 150 L90 155 L95 150 Z" 
          fill="none" stroke="#64748b" stroke-width="1"/>
    
    <!-- Vent (back detail visible from side) -->
    <line x1="100" y1="200" x2="100" y2="230" stroke="#64748b" stroke-width="1"/>
    
    <!-- Subtle pinstripe pattern -->
    <g opacity="0.3">
      <line x1="25" y1="70" x2="25" y2="240" stroke="#93c5fd" stroke-width="0.5"/>
      <line x1="30" y1="70" x2="30" y2="240" stroke="#93c5fd" stroke-width="0.5"/>
      <line x1="35" y1="70" x2="35" y2="240" stroke="#93c5fd" stroke-width="0.5"/>
      <line x1="45" y1="70" x2="45" y2="240" stroke="#93c5fd" stroke-width="0.5"/>
      <line x1="75" y1="70" x2="75" y2="240" stroke="#93c5fd" stroke-width="0.5"/>
      <line x1="85" y1="70" x2="85" y2="240" stroke="#93c5fd" stroke-width="0.5"/>
      <line x1="95" y1="70" x2="95" y2="240" stroke="#93c5fd" stroke-width="0.5"/>
    </g>
    
    <!-- Sleeve buttons -->
    <circle cx="5" cy="155" r="1.5" fill="#475569"/>
    <circle cx="5" cy="160" r="1.5" fill="#475569"/>
    <circle cx="5" cy="165" r="1.5" fill="#475569"/>
    
    <!-- Shoulder padding indication -->
    <ellipse cx="20" cy="75" rx="5" ry="10" fill="#1e40af" opacity="0.3"/>
    <ellipse cx="100" cy="75" rx="5" ry="10" fill="#1e40af" opacity="0.3"/>
  </g>
  
  <!-- Shadow -->
  <ellipse cx="120" cy="290" rx="45" ry="12" fill="#0f172a" opacity="0.7"/>
</svg>
