<svg width="400" height="300" viewBox="0 0 400 300" fill="none" xmlns="http://www.w3.org/2000/svg">
  <rect width="400" height="300" fill="#f59e0b"/>
  <g>
    <!-- Summer dress -->
    <path d="M150 80 L150 60 Q150 50 160 50 L180 50 Q190 50 190 60 L190 80 L210 100 L220 140 L230 180 Q230 200 210 200 L130 200 Q110 200 110 180 L120 140 L130 100 Z" 
          fill="#fbbf24" stroke="#f59e0b" stroke-width="2"/>
    <!-- Sunhat -->
    <ellipse cx="100" cy="100" rx="40" ry="15" fill="#fef3c7" stroke="#f59e0b" stroke-width="1"/>
    <ellipse cx="100" cy="95" rx="20" ry="25" fill="#fef3c7" stroke="#f59e0b" stroke-width="1"/>
    <!-- Sandals -->
    <ellipse cx="280" cy="150" rx="25" ry="8" fill="#92400e" stroke="#78350f" stroke-width="1"/>
    <ellipse cx="320" cy="170" rx="25" ry="8" fill="#92400e" stroke="#78350f" stroke-width="1"/>
    <!-- Sun -->
    <circle cx="350" cy="50" r="15" fill="#fbbf24"/>
    <g stroke="#fbbf24" stroke-width="2">
      <line x1="335" y1="35" x2="330" y2="30"/>
      <line x1="365" y1="35" x2="370" y2="30"/>
      <line x1="335" y1="65" x2="330" y2="70"/>
      <line x1="365" y1="65" x2="370" y2="70"/>
      <line x1="320" y1="50" x2="315" y2="50"/>
      <line x1="380" y1="50" x2="385" y2="50"/>
    </g>
  </g>
  <text x="200" y="280" text-anchor="middle" font-family="Arial, sans-serif" font-size="18" fill="white">Summer Breeze</text>
</svg>
